<svg xmlns="http://www.w3.org/2000/svg" xmlns:xlink="http://www.w3.org/1999/xlink" version="1.1" width="256" height="256" viewBox="0 0 256 256" xml:space="preserve">

<defs>
</defs>
<g style="stroke: none; stroke-width: 0; stroke-dasharray: none; stroke-linecap: butt; stroke-linejoin: miter; stroke-miterlimit: 10; fill: none; fill-rule: nonzero; opacity: 1;" transform="translate(1.4065934065934016 1.4065934065934016) scale(2.81 2.81)" >
	<path d="M 82.59 56.791 h -6.579 V 36.742 h 6.579 c 2.065 0 3.739 1.674 3.739 3.739 v 12.57 C 86.33 55.117 84.655 56.791 82.59 56.791 z" style="stroke: none; stroke-width: 1; stroke-dasharray: none; stroke-linecap: butt; stroke-linejoin: miter; stroke-miterlimit: 10; fill: rgb(247,191,80); fill-rule: nonzero; opacity: 1;" transform=" matrix(1 0 0 1 0 0) " stroke-linecap="round" />
	<path d="M 13.988 56.791 H 7.41 c -2.065 0 -3.739 -1.674 -3.739 -3.739 v -12.57 c 0 -2.065 1.674 -3.739 3.739 -3.739 h 6.579 V 56.791 z" style="stroke: none; stroke-width: 1; stroke-dasharray: none; stroke-linecap: butt; stroke-linejoin: miter; stroke-miterlimit: 10; fill: rgb(247,191,80); fill-rule: nonzero; opacity: 1;" transform=" matrix(1 0 0 1 0 0) " stroke-linecap="round" />
	<path d="M 68.656 20.877 H 21.344 c -4.062 0 -7.355 3.293 -7.355 7.355 v 37.069 c 0 4.062 3.293 7.355 7.355 7.355 h 4.46 V 90 l 23.311 -17.344 h 19.541 c 4.062 0 7.355 -3.293 7.355 -7.355 V 28.232 C 76.012 24.17 72.718 20.877 68.656 20.877 z" style="stroke: none; stroke-width: 1; stroke-dasharray: none; stroke-linecap: butt; stroke-linejoin: miter; stroke-miterlimit: 10; fill: rgb(201,207,212); fill-rule: nonzero; opacity: 1;" transform=" matrix(1 0 0 1 0 0) " stroke-linecap="round" />
	<path d="M 63.59 60.084 H 26.41 c -1.513 0 -2.74 -1.227 -2.74 -2.74 V 36.19 c 0 -1.513 1.227 -2.74 2.74 -2.74 h 37.18 c 1.513 0 2.74 1.227 2.74 2.74 v 21.153 C 66.33 58.857 65.103 60.084 63.59 60.084 z" style="stroke: none; stroke-width: 1; stroke-dasharray: none; stroke-linecap: butt; stroke-linejoin: miter; stroke-miterlimit: 10; fill: rgb(126,198,197); fill-rule: nonzero; opacity: 1;" transform=" matrix(1 0 0 1 0 0) " stroke-linecap="round" />
	<path d="M 39.924 38.909 h -2.599 c -2.182 0 -3.958 1.775 -3.958 3.957 v 10.759 c 0 0.553 0.448 1 1 1 s 1 -0.447 1 -1 v -5.858 h 6.514 v 5.858 c 0 0.553 0.448 1 1 1 s 1 -0.447 1 -1 V 42.866 C 43.882 40.684 42.106 38.909 39.924 38.909 z M 41.882 45.767 h -6.514 v -2.901 c 0 -1.079 0.878 -1.957 1.958 -1.957 h 2.599 c 1.08 0 1.958 0.878 1.958 1.957 V 45.767 z" style="stroke: none; stroke-width: 1; stroke-dasharray: none; stroke-linecap: butt; stroke-linejoin: miter; stroke-miterlimit: 10; fill: rgb(240,240,240); fill-rule: nonzero; opacity: 1;" transform=" matrix(1 0 0 1 0 0) " stroke-linecap="round" />
	<path d="M 55.632 52.625 H 53.82 V 40.909 h 1.812 c 0.553 0 1 -0.448 1 -1 s -0.447 -1 -1 -1 h -5.624 c -0.553 0 -1 0.448 -1 1 s 0.447 1 1 1 h 1.813 v 11.716 h -1.813 c -0.553 0 -1 0.447 -1 1 s 0.447 1 1 1 h 5.624 c 0.553 0 1 -0.447 1 -1 S 56.185 52.625 55.632 52.625 z" style="stroke: none; stroke-width: 1; stroke-dasharray: none; stroke-linecap: butt; stroke-linejoin: miter; stroke-miterlimit: 10; fill: rgb(240,240,240); fill-rule: nonzero; opacity: 1;" transform=" matrix(1 0 0 1 0 0) " stroke-linecap="round" />
	<path d="M 45 22.877 c -0.552 0 -1 -0.448 -1 -1 V 11.75 c 0 -0.552 0.448 -1 1 -1 s 1 0.448 1 1 v 10.127 C 46 22.429 45.552 22.877 45 22.877 z" style="stroke: none; stroke-width: 1; stroke-dasharray: none; stroke-linecap: butt; stroke-linejoin: miter; stroke-miterlimit: 10; fill: rgb(201,207,212); fill-rule: nonzero; opacity: 1;" transform=" matrix(1 0 0 1 0 0) " stroke-linecap="round" />
	<circle cx="45.005" cy="6.375" r="6.375" style="stroke: none; stroke-width: 1; stroke-dasharray: none; stroke-linecap: butt; stroke-linejoin: miter; stroke-miterlimit: 10; fill: rgb(247,191,80); fill-rule: nonzero; opacity: 1;" transform="  matrix(1 0 0 1 0 0) "/>
</g>
</svg>